# xmcd
#
# Track frame offsets:
#	150
#	13293
#	29027
#	46464
#	60005
#	90790
#	106029
#	116399
#	140946
#	172463
#	187646
#	201107
#	214401
#	231125
#	243242
#	256642
#	271200
#	287830
#	299762
#	314424
#
# Disc length: 4363 seconds
#
# Revision: 1
# Processed by: cddbd v1.5.2PL0 Copyright (c) Steve Scherf et al.
# Submitted via: audiograbber 1.83.01
#
DISCID=26110914
DTITLE=The Spencer Davis Group - Funky
DYEAR=1969
DGENRE=Rock
TTITLE0=I Met A Woman
TTITLE1=Letter From Edith
TTITLE2=Raintree River
TTITLE3=What A Way To Die
TTITLE4=Funky
TTITLE5=Magical Day
TTITLE6=I Guess I'm Waisting My Time
TTITLE7=Poor Misguided Woman
TTITLE8=And The Gods Came Down
TTITLE9=New Jersey Turnpike
TTITLE10=With Their New Face On
TTITLE11=Time Seller
TTITLE12=Feel Your Way
TTITLE13=Taking Out Time
TTITLE14=Mr Second Class
TTITLE15=After Tea
TTITLE16=Groove Extra
TTITLE17=Moonshine
TTITLE18=The Girls Song
TTITLE19=Dust My Blues
EXTD=
EXTT0=
EXTT1=
EXTT2=
EXTT3=
EXTT4=
EXTT5=
EXTT6=
EXTT7=
EXTT8=
EXTT9=
EXTT10=
EXTT11=
EXTT12=
EXTT13=
EXTT14=
EXTT15=
EXTT16=
EXTT17=
EXTT18=
EXTT19=
PLAYORDER=
